<?xml version="1.0" standalone="no"?>
<!DOCTYPE svg PUBLIC "-//W3C//DTD SVG 20010904//EN"
 "http://www.w3.org/TR/2001/REC-SVG-20010904/DTD/svg10.dtd">
<svg version="1.0" xmlns="http://www.w3.org/2000/svg"
 width="500.000000pt" height="500.000000pt" viewBox="0 0 500.000000 500.000000"
 preserveAspectRatio="xMidYMid meet">
<metadata>
Created by potrace 1.14, written by Peter Selinger 2001-2017
</metadata>
<g transform="translate(0.000000,500.000000) scale(0.100000,-0.100000)"
fill="#000000" stroke="none">
<path d="M0 2500 l0 -2500 2500 0 2500 0 0 2500 0 2500 -2500 0 -2500 0 0
-2500z m2825 1340 c0 -125 -1 -135 -19 -138 -35 -7 -46 25 -46 136 0 114 10
145 43 140 21 -3 22 -7 22 -138z m-268 98 c14 -18 63 -198 63 -230 0 -27 -20
-41 -44 -32 -7 3 -26 51 -40 107 -15 56 -29 109 -32 118 -5 16 19 49 35 49 5
0 13 -6 18 -12z m528 -4 c9 -9 14 -23 11 -30 -3 -8 -17 -58 -32 -112 -27 -101
-38 -122 -60 -122 -32 0 -33 35 -4 144 37 136 50 155 85 120z m-772 -101 c24
-27 117 -193 117 -208 0 -24 -36 -37 -54 -20 -21 22 -116 190 -116 207 0 14
19 38 30 38 4 0 14 -8 23 -17z m1027 -17 c0 -20 -113 -215 -127 -220 -22 -9
-43 5 -43 27 0 21 105 206 124 219 13 9 46 -9 46 -26z m-1161 -220 c84 -84 99
-116 57 -124 -13 -3 -45 23 -102 79 -77 77 -95 105 -77 122 17 18 45 0 122
-77z m1369 60 c5 -25 -154 -186 -184 -186 -23 0 -38 24 -28 43 4 7 41 47 83
89 58 59 82 77 101 75 15 -1 26 -9 28 -21z m-566 -90 c150 -47 267 -132 349
-255 118 -175 145 -342 93 -571 -5 -23 -1 -27 38 -37 98 -26 200 -126 235
-228 10 -30 17 -78 16 -122 -1 -130 -82 -254 -203 -312 -62 -29 -196 -41 -251
-22 -30 10 -34 8 -92 -45 -117 -106 -248 -149 -423 -142 l-112 5 -123 -104
c-68 -57 -123 -107 -122 -111 1 -3 42 -20 92 -37 l91 -30 -321 -285 c-176
-157 -330 -292 -342 -300 -17 -12 -12 1 20 60 211 384 251 461 240 465 -7 3
-50 18 -97 34 -47 16 -84 34 -83 40 2 6 53 80 114 165 61 85 111 158 111 162
-1 5 -29 14 -63 21 -70 14 -202 73 -237 106 l-22 21 -53 -26 c-85 -42 -124
-51 -203 -46 -133 9 -246 85 -306 206 -20 40 -23 63 -23 152 0 91 3 111 25
155 30 61 104 135 164 164 24 12 71 27 104 33 l60 11 12 54 c6 30 27 84 46
121 18 37 34 70 34 74 0 11 109 111 161 148 l50 34 -82 22 c-89 25 -105 34
-96 59 11 28 33 27 149 -5 124 -35 120 -35 198 -25 l56 7 34 66 c21 40 65 96
110 142 101 103 215 165 350 190 63 12 245 4 302 -14z m-947 -154 c102 -59
120 -82 84 -105 -13 -8 -39 2 -117 47 -116 66 -130 79 -112 101 20 24 39 18
145 -43z m1669 42 c9 -23 4 -28 -99 -89 -105 -61 -135 -68 -135 -31 0 17 9 28
33 40 17 8 61 33 97 55 72 43 95 49 104 25z m100 -247 c7 -11 7 -20 1 -26 -13
-13 -227 -69 -242 -64 -21 7 -15 43 10 52 12 5 51 17 87 26 36 10 76 21 90 25
31 10 41 8 54 -13z m36 -272 l0 -25 -129 0 c-130 0 -149 5 -137 35 4 12 31 15
136 15 l130 0 0 -25z m-122 -215 c85 -23 106 -40 81 -65 -20 -20 -242 42 -247
69 -8 39 9 39 166 -4z"/>
</g>
</svg>
